<svg width="30" height="34" viewBox="0 0 30 34" fill="none" xmlns="http://www.w3.org/2000/svg">
<path id="Vector" d="M5.98681 1.15105C5.75765 1.8594 5.91042 4.14188 6.44515 6.34565C7.74378 12.2486 7.591 12.7208 3.8479 14.8459C-1.95771 18.0729 -1.19381 20.0405 6.13959 20.985L10.5702 21.5359L12.3272 27.3602C13.2438 30.5871 14.4661 33.4993 15.0772 33.8141C16.605 34.8373 19.355 31.5316 21.1883 26.4944L22.7925 21.8508L25.8481 22.0869C28.0634 22.2443 29.0565 21.9295 29.6676 20.985C30.4315 19.8044 29.9732 19.0173 27.2995 16.1839C23.862 12.5634 23.6328 11.619 25.0078 6.81789C26.2301 2.48905 25.0842 1.46587 21.4175 3.74835C19.8897 4.61411 18.2092 5.40118 17.7508 5.40118C17.2161 5.40118 15.0008 4.14188 12.8619 2.64646C8.50767 -0.344372 6.75071 -0.7379 5.98681 1.15105ZM12.7091 6.89659L14.4661 8.3133L12.7855 9.25778C11.2577 10.0448 11.0285 9.96613 10.341 8.15589C9.88268 6.9753 9.57713 5.95212 9.57713 5.716C9.57713 4.92894 11.0285 5.47988 12.7091 6.89659ZM19.5078 15.2394C19.5078 17.9154 19.4314 17.9942 16.5286 17.9942C14.5425 17.9942 13.3966 17.6006 13.091 16.7349C12.2508 14.5311 12.5563 13.6653 14.6952 12.3273C17.598 10.5171 19.5078 11.6977 19.5078 15.2394ZM8.81323 17.2071C8.81323 17.6006 8.50767 17.9942 8.04933 17.9942C7.66739 17.9942 7.28544 17.6006 7.28544 17.2071C7.28544 16.7349 7.66739 16.42 8.04933 16.42C8.50767 16.42 8.81323 16.7349 8.81323 17.2071ZM17.98 24.3694C16.7577 28.5408 15.9939 28.5408 15.23 24.4481C14.7716 22.1656 14.9244 21.9295 16.6814 21.9295C18.5147 21.9295 18.5911 22.0869 17.98 24.3694Z" fill="#0DB395"/>
</svg>
