<svg width="101" height="100" viewBox="0 0 101 100" fill="none" xmlns="http://www.w3.org/2000/svg">
<g id="mdi:plant">
<path id="Vector" d="M13 54.1667C13 64.1124 16.9509 73.6506 23.9835 80.6832C31.0161 87.7159 40.5544 91.6667 50.5 91.6667C50.5 70.8334 33.7083 54.1667 13 54.1667ZM50.5 22.9167C53.2627 22.9167 55.9122 24.0142 57.8657 25.9677C59.8192 27.9212 60.9167 30.5707 60.9167 33.3334C60.9167 36.0961 59.8192 38.7456 57.8657 40.6991C55.9122 42.6526 53.2627 43.7501 50.5 43.7501C47.7373 43.7501 45.0878 42.6526 43.1343 40.6991C41.1808 38.7456 40.0833 36.0961 40.0833 33.3334C40.0833 30.5707 41.1808 27.9212 43.1343 25.9677C45.0878 24.0142 47.7373 22.9167 50.5 22.9167ZM23.8333 42.7084C23.8333 45.4711 24.9308 48.1206 26.8843 50.0741C28.8378 52.0276 31.4873 53.1251 34.25 53.1251C36.4583 53.1251 38.5 52.4167 40.0833 51.2917V52.0834C40.0833 54.8461 41.1808 57.4956 43.1343 59.4491C45.0878 61.4026 47.7373 62.5001 50.5 62.5001C53.2627 62.5001 55.9122 61.4026 57.8657 59.4491C59.8192 57.4956 60.9167 54.8461 60.9167 52.0834V51.2917C62.5 52.4167 64.5417 53.1251 66.75 53.1251C69.5127 53.1251 72.1622 52.0276 74.1157 50.0741C76.0692 48.1206 77.1667 45.4711 77.1667 42.7084C77.1667 38.5417 74.7083 35.0001 71.2083 33.3334C74.7083 31.6667 77.1667 28.0834 77.1667 23.9584C77.1667 21.1957 76.0692 18.5462 74.1157 16.5927C72.1622 14.6392 69.5127 13.5417 66.75 13.5417C64.5417 13.5417 62.5 14.2084 60.9167 15.3751V14.5834C60.9167 11.8207 59.8192 9.17122 57.8657 7.21772C55.9122 5.26421 53.2627 4.16675 50.5 4.16675C47.7373 4.16675 45.0878 5.26421 43.1343 7.21772C41.1808 9.17122 40.0833 11.8207 40.0833 14.5834V15.3751C38.5 14.2084 36.4583 13.5417 34.25 13.5417C31.4873 13.5417 28.8378 14.6392 26.8843 16.5927C24.9308 18.5462 23.8333 21.1957 23.8333 23.9584C23.8333 28.0834 26.2917 31.6667 29.7917 33.3334C26.2917 35.0001 23.8333 38.5417 23.8333 42.7084ZM50.5 91.6667C60.4456 91.6667 69.9839 87.7159 77.0165 80.6832C84.0491 73.6506 88 64.1124 88 54.1667C67.1667 54.1667 50.5 70.8334 50.5 91.6667Z" fill="#0DB395"/>
</g>
</svg>
