<svg width="101" height="100" viewBox="0 0 101 100" fill="none" xmlns="http://www.w3.org/2000/svg">
<g id="safety-supervision-svgrepo-com 1" clip-path="url(#clip0_1196_1604)">
<path id="Vector" d="M89.1727 13.6439L52.1894 0.298767C51.6447 0.101127 51.0698 2.24468e-05 50.4904 0C49.9094 0 49.3326 0.100708 48.7781 0.301788L11.9273 13.6469C9.93567 14.3693 8.53818 16.2617 8.53818 18.3805V49.9998C8.53818 57.0591 10.8135 64.1194 15.1557 70.984C18.4841 76.2453 23.1167 81.4049 28.8527 86.3205C38.4434 94.5389 47.9596 99.2796 48.3595 99.4773C49.0571 99.8211 49.8245 100 50.6022 100C51.3559 100 52.1145 99.8308 52.8101 99.4924C53.2099 99.2977 62.7218 94.6309 72.3216 86.445C78.0633 81.5493 82.6264 76.3897 85.9571 71.1099C90.2976 64.2305 92.4612 57.1283 92.4612 49.9998V18.3805C92.4615 16.2583 91.1691 14.3636 89.1727 13.6439ZM16.5948 49.9763V22.1453C16.5948 21.0859 17.244 20.1396 18.24 19.7784L49.5643 8.3826C49.8436 8.28155 50.1641 8.20703 50.4998 8.20703V50.0002H84.6435C84.6455 50.0002 84.6479 50.0455 84.6479 50.0744C84.6412 59.1814 80.0543 68.2072 71.0164 76.9953C63.9584 83.8585 55.9397 88.7566 51.8151 91.0672C51.4327 91.2817 50.8359 91.3828 50.5002 91.3828V49.9871L16.5948 49.9763Z" fill="#0DB395"/>
</g>
<defs>
<clipPath id="clip0_1196_1604">
<rect width="100" height="100" fill="white" transform="translate(0.5)"/>
</clipPath>
</defs>
</svg>
