<svg width="101" height="100" viewBox="0 0 101 100" fill="none" xmlns="http://www.w3.org/2000/svg">
<g id="service-svgrepo-com 1" clip-path="url(#clip0_1196_1545)">
<g id="Shopicon">
<path id="Vector" d="M42.3395 41.6605C44.6407 41.6605 46.5062 39.795 46.5062 37.4938C46.5062 35.1926 44.6407 33.3271 42.3395 33.3271C40.0383 33.3271 38.1729 35.1926 38.1729 37.4938C38.1729 39.795 40.0383 41.6605 42.3395 41.6605Z" fill="#0DB395"/>
<path id="Vector_2" d="M58.8374 41.6605C61.1386 41.6605 63.0041 39.795 63.0041 37.4938C63.0041 35.1926 61.1386 33.3271 58.8374 33.3271C56.5363 33.3271 54.6708 35.1926 54.6708 37.4938C54.6708 39.795 56.5363 41.6605 58.8374 41.6605Z" fill="#0DB395"/>
<path id="Vector_3" d="M50.6729 66.4854C59.7667 66.4854 67.1667 59.0896 67.1667 50H58.8334C58.8334 54.4938 55.1729 58.1521 50.6729 58.1521C46.1729 58.1521 42.5125 54.4938 42.5125 50H34.1792C34.1792 59.0896 41.5792 66.4854 50.6729 66.4854Z" fill="#0DB395"/>
<path id="Vector_4" d="M86.6854 39.6437C82.1771 23.9937 67.7541 12.5 50.6729 12.5C33.5916 12.5 19.1687 23.9937 14.6604 39.6437C11.5041 39.9521 9.00623 42.6 9.00623 45.8333V54.1667C9.00623 57.6042 11.8187 60.4167 15.2562 60.4167C18.6937 60.4167 21.5062 57.6042 21.5062 54.1667V49.9958C21.5083 33.9146 34.5916 20.8333 50.6729 20.8333C66.7562 20.8333 79.8396 33.9167 79.8396 50C79.8396 66.0833 66.7562 79.1667 50.6729 79.1667H46.4771C43.0396 79.1667 40.2271 81.9792 40.2271 85.4167C40.2271 88.8542 43.0396 91.6667 46.4771 91.6667H54.8396C58.0729 91.6667 60.7229 89.1687 61.0291 86.0125C73.3854 82.4521 83.125 72.7125 86.6854 60.3563C89.8416 60.05 92.3396 57.4 92.3396 54.1667V45.8333C92.3396 42.6 89.8416 39.95 86.6854 39.6437Z" fill="#0DB395"/>
</g>
</g>
<defs>
<clipPath id="clip0_1196_1545">
<rect width="100" height="100" fill="white" transform="translate(0.5)"/>
</clipPath>
</defs>
</svg>
