<svg width="101" height="100" viewBox="0 0 101 100" fill="none" xmlns="http://www.w3.org/2000/svg">
<g id="user-expert-svgrepo-com 1" clip-path="url(#clip0_1196_1592)">
<path id="Vector" d="M33.8741 45.8334C45.3519 45.8334 54.6565 36.506 54.6565 25.0001C54.6565 13.4941 45.3519 4.16675 33.8741 4.16675C22.3963 4.16675 13.0917 13.4941 13.0917 25.0001C13.0917 36.506 22.3963 45.8334 33.8741 45.8334ZM33.8741 45.8334C42.239 45.8334 49.5518 48.9976 54.7537 54.2647C57.784 57.333 60.098 61.1149 61.4864 65.4007M33.8741 45.8334C17.2482 45.8334 4.77875 58.3334 4.77875 75.0001V95.8334H46.3435M50.5 78.4314L67.9176 91.6667L96.2213 54.1667" stroke="#0DB395" stroke-width="8"/>
</g>
<defs>
<clipPath id="clip0_1196_1592">
<rect width="99.7555" height="100" fill="white" transform="translate(0.622253)"/>
</clipPath>
</defs>
</svg>
